<?xml version="1.0" encoding="utf-8"?>
<!-- Generator: Adobe Illustrator 16.0.0, SVG Export Plug-In . SVG Version: 6.00 Build 0)  -->
<!DOCTYPE svg PUBLIC "-//W3C//DTD SVG 1.1//EN" "http://www.w3.org/Graphics/SVG/1.1/DTD/svg11.dtd">
<svg version="1.1" id="Layer_1" xmlns="http://www.w3.org/2000/svg" xmlns:xlink="http://www.w3.org/1999/xlink" x="0px" y="0px"
	 width="100px" height="100px" viewBox="0 0 100 100" enable-background="new 0 0 100 100" xml:space="preserve">
<g>
	<path fill="#FFFFFF" stroke="#000000" stroke-miterlimit="10" d="M82.063,22.284h-0.006c-0.029-0.874-0.733-1.573-1.611-1.589
		v-0.003h-3.36l-0.001,60.404l0.001,0.01c0,0.9-0.722,1.627-1.617,1.645v0.005l-50.906-0.002c-0.816,0-1.488-0.595-1.619-1.375
		v-3.603h47.405v-0.002c0.012,0,0.021,0.002,0.031,0.002c0.91,0,1.646-0.734,1.646-1.646c0-0.006-0.002-0.012-0.002-0.012
		l0.002-62.202c0-0.91-0.736-1.647-1.646-1.646c-0.01,0-0.02,0.003-0.029,0.003v-0.004L19.583,12.27
		c-0.91,0-1.646,0.736-1.646,1.646c0,0.021,0.006,0.042,0.006,0.063v59.237v12.808c-0.001,0.02-0.006,0.039-0.006,0.059
		s0.005,0.039,0.006,0.059v0.076h0.008c0.07,0.846,0.769,1.512,1.632,1.512l0,0l60.833,0.002h0.029v-0.002
		c0.896-0.017,1.617-0.744,1.617-1.644l-0.002-0.01L82.063,22.284z M22.916,23.872c0-0.908,0.736-1.646,1.646-1.646h40.84
		c0.908,0,1.646,0.738,1.646,1.646l0,0l-0.001,12.361v0.002c0,0.91-0.736,1.646-1.646,1.646l0,0H24.562
		c-0.909,0-1.646-0.736-1.646-1.646l0.001-12.354C22.917,23.878,22.916,23.875,22.916,23.872z"/>
</g>
</svg>
