<?xml version="1.0" encoding="utf-8"?>
<!-- Generator: Adobe Illustrator 16.0.0, SVG Export Plug-In . SVG Version: 6.00 Build 0)  -->
<!DOCTYPE svg PUBLIC "-//W3C//DTD SVG 1.1//EN" "http://www.w3.org/Graphics/SVG/1.1/DTD/svg11.dtd">
<svg version="1.1" xmlns="http://www.w3.org/2000/svg" xmlns:xlink="http://www.w3.org/1999/xlink" x="0px" y="0px" width="100px"
	 height="100px" viewBox="0 0 100 100" enable-background="new 0 0 100 100" xml:space="preserve">
<g id="Layer_2">
</g>
<g id="Layer_1">
	<g>
		<path fill="#FFFFFF" d="M85.631,34.058c1.298,1.02,2.359,3.204,2.359,4.854V93.5c0,1.65-1.35,3-3,3H13.83c-1.65,0-3-1.35-3-3
			V38.911c0-1.65,1.012-3.894,2.249-4.985L44.918,5.818c1.237-1.092,3.311-1.151,4.608-0.132L85.631,34.058z"/>
		<path fill="none" stroke="#000000" stroke-width="2" stroke-miterlimit="10" d="M85.631,34.058
			c1.298,1.02,2.359,3.204,2.359,4.854V93.5c0,1.65-1.35,3-3,3H13.83c-1.65,0-3-1.35-3-3V38.911c0-1.65,1.012-3.894,2.249-4.985
			L44.918,5.818c1.237-1.092,3.311-1.151,4.608-0.132L85.631,34.058z"/>
	</g>
	<g>
		<g>
			<g>
				<path fill="#FFFFFF" d="M72.39,70.397H63.94c3.973-4.044,12.139-12.463,12.951-23.901c0.076-0.551,0.111-1.061,0.111-1.552
					c0-6.515-5.299-11.818-11.824-11.818c-1.318,0-33.853,0-33.853,0c-0.314,0-0.617,0.038-0.906,0.118
					c-5.825,0.819-10.146,5.753-10.146,11.7c0,3.199,1.254,6.213,3.542,8.488c0.662,0.66,1.559,1.029,2.499,1.029
					c0,0,3.63,0,4.277,0c0.021,0.035,1.998,3.838-7.019,14.475l-0.23,0.271c-0.025,0.023-0.041,0.049-0.064,0.078
					c-1.852,2.338-3.003,5.659-3.003,8.671c0,6.111,3.771,10.761,9.789,11.316c0.099,0.013,32.912-0.062,34.182-0.062
					c6.521,0,12.756-4.732,12.756-11.255c0-1.979-0.527-3.962-1.516-5.741C74.858,71.093,73.671,70.397,72.39,70.397z"/>
			</g>
		</g>
		<g>
			<path d="M142.06,61.915"/>
			<path d="M121.843,61.915"/>
		</g>
		<g>
			<path d="M138.843,69.803"/>
			<path d="M118.634,69.803"/>
		</g>
		<g>
			<path d="M115.331,78.454"/>
		</g>
	</g>
	<g>
		<g>
			<line x1="37.05" y1="62.118" x2="57.268" y2="62.118"/>
			<rect x="37.05" y="61.403" width="20.218" height="1.43"/>
		</g>
		<g>
			<line x1="33.84" y1="70.007" x2="54.051" y2="70.007"/>
			<rect x="33.84" y="69.29" width="20.213" height="1.426"/>
		</g>
		<g>
			<line x1="30.539" y1="78.657" x2="50.75" y2="78.657"/>
			<rect x="30.539" y="77.942" width="20.211" height="1.426"/>
		</g>
		<g>
			<g>
				<path d="M72.391,70.397h-8.449c3.973-4.045,12.141-12.463,12.953-23.902c0.076-0.551,0.111-1.062,0.111-1.552
					c0-6.515-5.301-11.818-11.824-11.818c-1.32,0-33.855,0-33.855,0c-0.313,0-0.616,0.038-0.904,0.118
					c-5.826,0.819-10.147,5.753-10.147,11.7c0,3.199,1.255,6.214,3.542,8.487c0.661,0.662,1.559,1.031,2.5,1.031c0,0,3.63,0,4.276,0
					c0.021,0.035,1.999,3.838-7.018,14.475l-0.23,0.271c-0.025,0.023-0.042,0.047-0.064,0.076c-1.852,2.338-3.003,5.66-3.003,8.672
					c0,6.111,3.771,10.762,9.79,11.316c0.099,0.012,32.912-0.063,34.183-0.063c6.52,0,12.756-4.732,12.756-11.254
					c0-1.979-0.527-3.963-1.518-5.742C74.861,71.093,73.674,70.397,72.391,70.397z M26.08,51.515
					c-1.538-1.534-2.502-5.084-2.502-7.403c0-4.308,3.301-7.851,7.509-8.237v-0.037h28.07c-2.615,1.83-4.32,4.852-4.32,8.274
					c0,2.237,0.736,5.724,1.975,7.403H26.08z M30.611,86.31c-4.204-0.387-7.507-4.041-7.507-8.348c0-2.266,0.922-4.807,2.241-6.477
					c1.622-1.928,8.346-10.133,8.413-16.996c0,0,15.909,0.014,22.069,0.014c5.381,0,3.709-2.844,3.709-2.844
					c-0.602-0.721-1.074-2.979-1.406-3.88c-0.004-0.015-0.008-0.023-0.018-0.04c0,0-3.977-10.138,7.781-11.067
					c4.656,0,8.271,3.703,8.271,8.274c0,13.049-14.168,24.738-14.168,24.738h0.104c-2.605,1.834-4.313,4.854-4.313,8.277
					c0,3.463,1.746,6.525,4.412,8.348H30.611z M66.133,85.595c-4.568,0-8.27-3.705-8.27-8.271c0-1.465,0.402-2.867,1.068-4.061
					v0.043l14.408-0.043c0.67,1.193,1.068,2.596,1.068,4.061C74.408,81.89,70.705,85.595,66.133,85.595z"/>
			</g>
		</g>
	</g>
</g>
</svg>
