<?xml version="1.0" encoding="utf-8"?>
<!-- Generator: Adobe Illustrator 16.0.0, SVG Export Plug-In . SVG Version: 6.00 Build 0)  -->
<!DOCTYPE svg PUBLIC "-//W3C//DTD SVG 1.1//EN" "http://www.w3.org/Graphics/SVG/1.1/DTD/svg11.dtd">
<svg version="1.1" xmlns="http://www.w3.org/2000/svg" xmlns:xlink="http://www.w3.org/1999/xlink" x="0px" y="0px" width="100px"
	 height="100px" viewBox="0 0 100 100" enable-background="new 0 0 100 100" xml:space="preserve">
<g id="Layer_2">
</g>
<g id="Layer_1">
	<g>
		<g>
			<g>
				<path fill="#FFFFFF" d="M81.193,62.845H69.896c5.311-5.408,16.232-16.665,17.318-31.96c0.102-0.737,0.148-1.419,0.148-2.075
					c0-8.711-7.086-15.803-15.811-15.803c-1.764,0-45.268,0-45.268,0c-0.42,0-0.824,0.051-1.211,0.157
					c-7.789,1.095-13.566,7.693-13.566,15.646c0,4.277,1.678,8.308,4.736,11.349c0.885,0.884,2.084,1.378,3.342,1.378
					c0,0,4.854,0,5.719,0c0.027,0.047,2.672,5.132-9.385,19.354l-0.309,0.363c-0.033,0.031-0.055,0.064-0.086,0.104
					c-2.477,3.127-4.016,7.568-4.016,11.596c0,8.172,5.043,14.389,13.09,15.131c0.133,0.018,44.008-0.082,45.707-0.082
					c8.719,0,17.057-6.328,17.057-15.049c0-2.646-0.705-5.299-2.027-7.678C84.496,63.774,82.908,62.845,81.193,62.845z"/>
			</g>
		</g>
		<g>
			<path d="M174.354,51.502"/>
			<path d="M147.321,51.502"/>
		</g>
		<g>
			<path d="M170.054,62.049"/>
			<path d="M143.029,62.049"/>
		</g>
		<g>
			<path d="M138.615,73.617"/>
		</g>
	</g>
	<g>
		<g>
			<line x1="33.938" y1="51.502" x2="60.972" y2="51.502"/>
			<rect x="33.938" y="50.546" width="27.035" height="1.911"/>
		</g>
		<g>
			<line x1="29.646" y1="62.049" x2="56.671" y2="62.049"/>
			<rect x="29.646" y="61.092" width="27.029" height="1.906"/>
		</g>
		<g>
			<line x1="25.232" y1="73.617" x2="52.258" y2="73.617"/>
			<rect x="25.232" y="72.66" width="27.025" height="1.908"/>
		</g>
		<g>
			<g>
				<path d="M81.194,62.572H69.897c5.311-5.408,16.232-16.666,17.318-31.961c0.102-0.737,0.148-1.419,0.148-2.075
					c0-8.711-7.086-15.803-15.811-15.803c-1.764,0-45.269,0-45.269,0c-0.419,0-0.823,0.051-1.209,0.157
					c-7.79,1.095-13.568,7.693-13.568,15.646c0,4.277,1.678,8.308,4.737,11.349c0.884,0.884,2.084,1.378,3.342,1.378
					c0,0,4.854,0,5.718,0c0.027,0.047,2.673,5.132-9.384,19.354l-0.309,0.363c-0.034,0.031-0.055,0.064-0.085,0.104
					c-2.477,3.127-4.016,7.568-4.016,11.596c0,8.172,5.042,14.389,13.09,15.131c0.132,0.018,44.008-0.082,45.707-0.082
					c8.719,0,17.057-6.328,17.057-15.049c0-2.646-0.705-5.299-2.027-7.678C84.497,63.502,82.909,62.572,81.194,62.572z
					 M19.269,37.322c-2.057-2.05-3.346-6.797-3.346-9.898c0-5.761,4.414-10.498,10.041-11.015V16.36h37.536
					c-3.497,2.447-5.777,6.488-5.777,11.063c0,2.992,0.984,7.654,2.639,9.898H19.269z M25.329,83.85
					c-5.621-0.518-10.038-5.404-10.038-11.162c0-3.029,1.233-6.428,2.997-8.66c2.168-2.578,11.16-13.551,11.25-22.728
					c0,0,21.272,0.02,29.509,0.02c7.196,0,4.96-3.803,4.96-3.803c-0.805-0.965-1.436-3.984-1.879-5.189
					c-0.006-0.02-0.012-0.031-0.023-0.053c0,0-5.318-13.556,10.404-14.798c6.225,0,11.061,4.951,11.061,11.064
					c0,17.448-18.945,33.079-18.945,33.079h0.139c-3.484,2.451-5.768,6.49-5.768,11.068c0,4.631,2.336,8.727,5.9,11.162H25.329z
					 M72.827,82.895c-6.109,0-11.059-4.955-11.059-11.063c0-1.957,0.537-3.832,1.428-5.43v0.059l19.268-0.059
					c0.895,1.598,1.428,3.473,1.428,5.43C83.892,77.939,78.94,82.895,72.827,82.895z"/>
			</g>
		</g>
	</g>
</g>
</svg>
