<?xml version="1.0" encoding="utf-8"?>
<!-- Generator: Adobe Illustrator 16.0.0, SVG Export Plug-In . SVG Version: 6.00 Build 0)  -->
<!DOCTYPE svg PUBLIC "-//W3C//DTD SVG 1.1//EN" "http://www.w3.org/Graphics/SVG/1.1/DTD/svg11.dtd">
<svg version="1.1" id="Layer_1" xmlns="http://www.w3.org/2000/svg" xmlns:xlink="http://www.w3.org/1999/xlink" x="0px" y="0px"
	 width="100px" height="100px" viewBox="0 0 100 100" enable-background="new 0 0 100 100" xml:space="preserve">
<g>
	<path fill="#FFFFFF" stroke="#000000" stroke-miterlimit="10" d="M80.161,60.441l-15.66-7.471l-6.622-3.159
		c2.893-1.822,5.241-4.634,6.778-8.021c1.219-2.69,1.944-5.734,1.944-8.99c0-1.827-0.289-3.562-0.693-5.236
		c-1.971-8.112-8.305-14.088-15.91-14.088c-7.461,0-13.7,5.763-15.792,13.644c-0.483,1.808-0.815,3.688-0.815,5.68
		c0,3.459,0.808,6.684,2.181,9.489c1.587,3.254,3.94,5.937,6.804,7.662l-6.342,2.953l-16.168,7.53
		c-1.404,0.657-2.327,2.241-2.327,4.01v15.063v2.703c0,2.381,1.659,4.311,3.707,4.311h24.013V72.92c0-0.146,0.05-0.277,0.119-0.396
		l-0.01-0.006l3.933-6.812l0.01,0.006c0.14-0.239,0.389-0.41,0.687-0.41s0.547,0.169,0.688,0.41l0.004-0.003l0.035,0.063
		c0.006,0.011,0.012,0.019,0.017,0.028l3.881,6.722l-0.005,0.002c0.068,0.119,0.119,0.25,0.119,0.397v13.603h24.013
		c2.048,0,3.708-1.931,3.708-4.312v-2.703V64.445C82.46,62.684,81.552,61.114,80.161,60.441z M54.621,56.452l0.01,0.007
		l-3.936,6.812l-0.01-0.006c-0.139,0.239-0.388,0.409-0.686,0.409s-0.547-0.17-0.687-0.409l-0.005,0.003l-0.04-0.069
		c-0.003-0.007-0.009-0.013-0.012-0.021l-3.881-6.723l0.004-0.003c-0.069-0.118-0.119-0.249-0.119-0.396
		c0-0.445,0.361-0.806,0.806-0.806h7.866c0.445,0,0.805,0.36,0.805,0.806C54.738,56.203,54.689,56.334,54.621,56.452z"/>
</g>
<line fill="none" stroke="#000000" stroke-miterlimit="10" x1="45.504" y1="56.249" x2="45.539" y2="56.249"/>
<path stroke="#000000" stroke-miterlimit="10" d="M54.305,55.713c-0.075,0.358-4.06,7.947-4.295,7.943
	c-0.38-0.01-4.333-7.746-4.197-7.994L54.305,55.713z"/>
<path stroke="#000000" stroke-miterlimit="10" d="M45.698,73.189c0.075-0.358,4.06-7.947,4.295-7.943
	c0.38,0.01,4.333,7.746,4.198,7.994L45.698,73.189z"/>
<rect x="45.698" y="73.189" stroke="#000000" stroke-miterlimit="10" width="8.496" height="13.334"/>
</svg>
