<?xml version="1.0" encoding="utf-8"?>
<!-- Generator: Adobe Illustrator 16.0.0, SVG Export Plug-In . SVG Version: 6.00 Build 0)  -->
<!DOCTYPE svg PUBLIC "-//W3C//DTD SVG 1.1//EN" "http://www.w3.org/Graphics/SVG/1.1/DTD/svg11.dtd">
<svg version="1.1" id="Layer_1" xmlns="http://www.w3.org/2000/svg" xmlns:xlink="http://www.w3.org/1999/xlink" x="0px" y="0px"
	 width="100px" height="100px" viewBox="0 0 100 100" enable-background="new 0 0 100 100" xml:space="preserve">
<g>
	<path fill="#FFFFFF" stroke="#000000" stroke-miterlimit="10" d="M80.161,60.441l-15.66-7.471l-6.622-3.159
		c2.893-1.822,5.241-4.634,6.778-8.022c1.22-2.69,1.946-5.734,1.946-8.99c0-1.827-0.291-3.562-0.694-5.236
		C63.939,19.453,57.605,13.477,50,13.477c-7.461,0-13.701,5.763-15.792,13.645c-0.482,1.808-0.815,3.688-0.815,5.68
		c0,3.459,0.808,6.684,2.181,9.489c1.587,3.254,3.94,5.937,6.804,7.662l-6.342,2.953l-16.168,7.529
		c-1.404,0.658-2.327,2.242-2.327,4.012v15.062v2.703c0,2.381,1.659,4.312,3.708,4.312h57.505c2.048,0,3.708-1.93,3.708-4.312
		v-2.703V64.445C82.46,62.684,81.552,61.114,80.161,60.441z"/>
</g>
<path fill="#FFFFFF" stroke="#000000" stroke-width="2" stroke-miterlimit="10" d="M90.524,64.779h-6.358v-6.358
	c0-3.614-3.158-6.546-7.054-6.546s-7.054,2.932-7.054,6.546v6.358H63.7c-3.614,0-6.546,3.158-6.546,7.054s2.932,7.054,6.546,7.054
	h6.358v6.358c0,3.614,3.158,6.546,7.054,6.546s7.054-2.932,7.054-6.546v-6.358h6.358c3.614,0,6.546-3.158,6.546-7.054
	S94.139,64.779,90.524,64.779z"/>
</svg>
