<?xml version="1.0" encoding="utf-8"?>
<!-- Generator: Adobe Illustrator 16.0.0, SVG Export Plug-In . SVG Version: 6.00 Build 0)  -->
<!DOCTYPE svg PUBLIC "-//W3C//DTD SVG 1.1//EN" "http://www.w3.org/Graphics/SVG/1.1/DTD/svg11.dtd">
<svg version="1.1" id="Layer_1" xmlns="http://www.w3.org/2000/svg" xmlns:xlink="http://www.w3.org/1999/xlink" x="0px" y="0px"
	 width="100px" height="100px" viewBox="0 0 100 100" enable-background="new 0 0 100 100" xml:space="preserve">
<g>
	<path fill="#FFFFFF" stroke="#000000" stroke-miterlimit="10" d="M96.117,57.583l-16.186-7.719
		c3.773-2.373,6.338-7.016,6.338-12.354c0-7.754-5.396-14.034-12.059-14.034c-2.289,0-4.402,0.781-6.225,2.066
		c1.088,2.756,1.701,5.796,1.701,8.999c0,4.782-1.41,9.317-3.824,13.066c0.834,0.932,1.771,1.735,2.81,2.36l-0.01,0.003
		l10.426,4.972c2.947,1.428,4.854,4.582,4.854,8.045v13.539H95.09c1.489,0,2.694-1.399,2.694-3.129V60.492
		C97.785,59.21,97.126,58.072,96.117,57.583z"/>
	<path fill="#FFFFFF" stroke="#000000" stroke-miterlimit="10" d="M31.567,49.825c0.861-0.548,1.651-1.221,2.368-1.987
		c-2.514-3.781-3.972-8.401-3.972-13.297c0-3.271,0.646-6.37,1.777-9.17c-1.76-1.172-3.773-1.895-5.948-1.895
		c-6.666,0-12.062,6.28-12.062,14.034c0,5.425,2.651,10.12,6.524,12.457l-16.349,7.61c-1.02,0.479-1.691,1.629-1.691,2.915v12.902
		c0,1.729,1.209,3.131,2.694,3.131h10.805V62.984c0-3.502,1.938-6.672,4.943-8.079L31.567,49.825z"/>
	<path fill="#FFFFFF" stroke="#000000" stroke-miterlimit="10" d="M76.939,59.386l-14.076-6.715l-5.952-2.84
		c2.601-1.637,4.711-4.165,6.093-7.21c1.096-2.418,1.749-5.155,1.749-8.081c0-1.642-0.26-3.201-0.623-4.706
		c-1.771-7.293-7.466-12.665-14.302-12.665c-6.708,0-12.316,5.181-14.196,12.266c-0.434,1.625-0.733,3.315-0.733,5.105
		c0,3.109,0.727,6.008,1.961,8.529c1.427,2.925,3.542,5.337,6.116,6.888l-5.702,2.654L22.74,59.379
		c-1.262,0.591-2.092,2.016-2.092,3.605v13.541v2.43c0,2.14,1.492,3.875,3.333,3.875h51.691c1.842,0,3.333-1.735,3.333-3.875v-2.43
		V62.984C79.006,61.4,78.189,59.99,76.939,59.386z"/>
</g>
<path fill="#FFFFFF" stroke="#000000" stroke-width="2" stroke-miterlimit="10" d="M89.619,70.891h-6.357v-6.358
	c0-3.614-3.158-6.546-7.055-6.546c-3.896,0-7.053,2.932-7.053,6.546v6.358h-6.358c-3.614,0-6.546,3.158-6.546,7.054
	s2.932,7.054,6.546,7.054h6.358v6.358c0,3.614,3.157,6.546,7.053,6.546c3.896,0,7.055-2.932,7.055-6.546v-6.358h6.357
	c3.615,0,6.547-3.158,6.547-7.054S93.234,70.891,89.619,70.891z"/>
</svg>
